<svg width="14" height="14" viewBox="0 0 14 14" fill="none" xmlns="http://www.w3.org/2000/svg">
<path d="M2.44531 4H3.44531H11.4453" stroke="black" stroke-width="0.6" stroke-linecap="round" stroke-linejoin="round"/>
<path d="M10.4453 4V11C10.4453 11.2652 10.34 11.5196 10.1524 11.7071C9.96488 11.8946 9.71053 12 9.44531 12H4.44531C4.1801 12 3.92574 11.8946 3.73821 11.7071C3.55067 11.5196 3.44531 11.2652 3.44531 11V4M4.94531 4V3C4.94531 2.73478 5.05067 2.48043 5.23821 2.29289C5.42574 2.10536 5.6801 2 5.94531 2H7.94531C8.21053 2 8.46488 2.10536 8.65242 2.29289C8.83996 2.48043 8.94531 2.73478 8.94531 3V4" stroke="black" stroke-width="0.6" stroke-linecap="round" stroke-linejoin="round"/>
</svg>
