<svg width="26" height="25" viewBox="0 0 26 25" fill="none" xmlns="http://www.w3.org/2000/svg">
<path d="M13.0286 25H12.9714C5.81904 25 0 19.4048 0 12.5275V12.4725C0 5.59525 5.81904 0 12.9714 0H13.0286C20.181 0 26 5.59525 26 12.4725V12.5275C26 19.4048 20.181 25 13.0286 25ZM12.9714 0.846224C6.30396 0.846224 0.880073 6.06152 0.880073 12.4725V12.5275C0.880073 18.9385 6.30396 24.1538 12.9714 24.1538H13.0286C19.696 24.1538 25.1199 18.9385 25.1199 12.5275V12.4725C25.1199 6.06152 19.696 0.846224 13.0286 0.846224H12.9714Z" fill="#222"/>
<path d="M14.7494 9.69512V12.326H18.1341L17.5982 15.87H14.7494V24.0352C14.1782 24.1114 13.5938 24.1512 13.0007 24.1512C12.316 24.1512 11.6436 24.0987 10.9888 23.9972V15.87H7.86719V12.326H10.9888V9.107C10.9888 7.10991 12.6724 5.49023 14.7502 5.49023V5.49193C14.7564 5.49193 14.7617 5.49023 14.7678 5.49023H18.135V8.55526H15.9348C15.2809 8.55526 14.7502 9.06553 14.7502 9.69427L14.7494 9.69512Z" fill="#aaa"/>
</svg>
